<?xml version="1.0" standalone="no"?>
<!DOCTYPE svg PUBLIC "-//W3C//DTD SVG 20010904//EN" "http://www.w3.org/TR/2001/REC-SVG-20010904/DTD/svg10.dtd">
<svg version="1.0" xmlns="http://www.w3.org/2000/svg" width="24px" height="24px" viewBox="0 0 24 24"
    preserveAspectRatio="xMidYMid meet">

    <g transform="translate(0.000000,24.000000) scale(0.0100000,-0.0100000)" fill="#000000" stroke="none">
        <path d="M1050 2236 c-46 -17 -795 -450 -839 -484 -76 -61 -80 -56 118 -165
99 -53 183 -97 188 -97 6 0 18 9 28 20 10 11 133 86 274 168 239 137 259 147
306 147 46 -1 71 -13 290 -139 132 -76 254 -149 272 -162 17 -13 34 -24 37
-24 11 0 356 203 356 210 0 3 -12 18 -27 32 -42 38 -828 489 -871 499 -50 12
-90 10 -132 -5z" />
        <path d="M1055 1766 c-109 -56 -489 -282 -492 -293 -2 -6 34 -32 80 -57 l84
-46 137 80 c214 126 248 142 275 135 14 -4 98 -49 188 -101 90 -52 170 -97
177 -100 14 -5 176 82 176 94 0 9 4 6 -273 167 -130 75 -251 138 -269 141 -23
4 -48 -2 -83 -20z" />
        <path d="M1922 1577 l-174 -102 1 -332 c2 -351 0 -363 -45 -405 -28 -25 -503
-297 -530 -304 l-24 -6 0 -214 0 -213 43 13 c51 15 820 457 861 494 16 15 39
50 52 77 l24 50 0 488 c0 403 -3 494 -14 522 -8 19 -16 35 -18 34 -2 0 -81
-46 -176 -102z" />
        <path d="M133 1647 c-14 -21 -15 -987 -2 -1035 23 -84 65 -115 484 -355 454
-261 420 -243 468 -251 l37 -7 0 210 0 211 -27 6 c-45 10 -532 295 -558 326
-42 50 -47 91 -44 411 l2 300 -176 97 c-121 67 -179 95 -184 87z" />
        <path d="M1616 1400 l-79 -47 2 -214 c1 -195 0 -217 -17 -244 -13 -21 -73 -61
-195 -130 l-176 -100 -1 -97 c0 -61 4 -98 10 -98 23 0 487 275 518 306 l32 34
0 314 c0 173 -3 317 -7 319 -5 2 -44 -17 -87 -43z" />
        <path d="M536 1416 c-3 -11 -6 -145 -6 -296 0 -245 2 -279 19 -315 17 -37 37
-51 272 -186 140 -81 264 -149 277 -152 22 -5 22 -4 22 94 0 86 -2 100 -17
106 -10 3 -94 49 -187 102 -116 66 -174 105 -187 126 -17 27 -19 51 -18 239
l1 209 -85 47 c-82 46 -86 47 -91 26z" />
    </g>
</svg>