<?xml version="1.0" standalone="no"?>
<!DOCTYPE svg PUBLIC "-//W3C//DTD SVG 20010904//EN" "http://www.w3.org/TR/2001/REC-SVG-20010904/DTD/svg10.dtd">
<svg version="1.0" xmlns="http://www.w3.org/2000/svg" width="24px" height="24px" viewBox="0 0 24 24"
    preserveAspectRatio="xMidYMid meet">

    <g transform="translate(0.000000,24.000000) scale(0.0100000,-0.0100000)" fill="#000000" stroke="none">
        <path d="M1080 1660 l0 -80 90 0 90 0 0 80 0 80 -90 0 -90 0 0 -80z" />
        <path d="M650 1460 l0 -80 90 0 90 0 0 80 0 80 -90 0 -90 0 0 -80z" />
        <path d="M870 1460 l0 -80 90 0 90 0 0 80 0 80 -90 0 -90 0 0 -80z" />
        <path d="M1080 1460 l0 -80 90 0 90 0 0 80 0 80 -90 0 -90 0 0 -80z" />
        <path d="M1646 1438 c-32 -67 -41 -131 -26 -188 20 -77 18 -83 -20 -97 -26 -9
-199 -12 -667 -12 l-633 -1 0 -83 c0 -150 50 -282 144 -385 102 -109 244 -162
441 -162 293 0 535 91 714 270 67 67 152 190 177 256 l16 41 64 6 c84 6 147
44 188 111 l30 48 -24 19 c-32 24 -114 42 -172 38 l-45 -4 -16 45 c-16 46
-109 150 -133 150 -7 0 -24 -24 -38 -52z" />
        <path d="M430 1260 l0 -80 90 0 90 0 0 80 0 80 -90 0 -90 0 0 -80z" />
        <path d="M650 1260 l0 -80 90 0 90 0 0 80 0 80 -90 0 -90 0 0 -80z" />
        <path d="M870 1260 l0 -80 90 0 90 0 0 80 0 80 -90 0 -90 0 0 -80z" />
        <path d="M1080 1260 l0 -80 90 0 90 0 0 80 0 80 -90 0 -90 0 0 -80z" />
        <path d="M1300 1260 l0 -80 90 0 90 0 0 80 0 80 -90 0 -90 0 0 -80z" />
    </g>
</svg>