<?xml version="1.0" encoding="UTF-8"?>
<svg xmlns="http://www.w3.org/2000/svg" xmlns:xlink="http://www.w3.org/1999/xlink" width="24px" height="24px" viewBox="0 0 24 24" version="1.1">
<g id="surface1">
<path style=" stroke:none;fill-rule:nonzero;fill:rgb(0%,0%,0%);fill-opacity:1;" d="M 21.824219 1.261719 C 21.488281 2.066406 21.058594 2.832031 20.542969 3.535156 C 17.480469 0.460938 12.996094 -0.726562 8.8125 0.425781 C 4.628906 1.582031 1.390625 4.902344 0.335938 9.113281 C -0.714844 13.328125 0.585938 17.777344 3.738281 20.765625 L 4.179688 21.15625 C 7.640625 24.074219 12.445312 24.800781 16.613281 23.039062 C 20.785156 21.277344 23.613281 17.328125 23.933594 12.8125 C 24.261719 9.75 23.363281 5.871094 21.824219 1.261719 Z M 5.449219 20.835938 C 5.089844 21.277344 4.441406 21.34375 4 20.988281 C 3.558594 20.628906 3.492188 19.980469 3.847656 19.539062 C 4.207031 19.097656 4.855469 19.03125 5.296875 19.386719 C 5.738281 19.746094 5.804688 20.394531 5.449219 20.835938 Z M 21.777344 17.230469 C 18.804688 21.1875 12.464844 19.851562 8.398438 20.042969 C 8.398438 20.042969 7.679688 20.085938 6.953125 20.203125 C 6.953125 20.203125 7.226562 20.089844 7.574219 19.957031 C 10.429688 18.960938 11.78125 18.769531 13.515625 17.878906 C 16.78125 16.21875 20.011719 12.582031 20.683594 8.804688 C 19.441406 12.441406 15.667969 15.566406 12.234375 16.835938 C 9.878906 17.703125 5.628906 18.546875 5.628906 18.546875 L 5.457031 18.457031 C 2.5625 17.050781 2.476562 10.785156 7.734375 8.765625 C 10.039062 7.875 12.242188 8.363281 14.730469 7.769531 C 17.386719 7.140625 20.460938 5.148438 21.710938 2.550781 C 23.109375 6.707031 24.796875 13.210938 21.773438 17.234375 Z M 21.777344 17.230469 "/>
</g>
</svg>
