<?xml version="1.0" encoding="UTF-8"?>
<svg xmlns="http://www.w3.org/2000/svg" xmlns:xlink="http://www.w3.org/1999/xlink" width="24px" height="24px" viewBox="0 0 24 24" version="1.1">
<g id="surface1">
<path style=" stroke:none;fill-rule:nonzero;fill:rgb(0%,0%,0%);fill-opacity:1;" d="M 10.5 22.941406 C 8.269531 22.757812 6.699219 22.414062 5.183594 21.789062 C 3.824219 21.21875 2.867188 20.507812 2.375 19.679688 C 2.011719 19.0625 2.039062 19.683594 2.039062 12 L 2.039062 5.132812 L 2.148438 4.820312 C 2.710938 3.195312 5.066406 1.890625 8.460938 1.316406 C 9.664062 1.109375 10.40625 1.058594 12 1.058594 C 13.640625 1.058594 14.347656 1.109375 15.65625 1.339844 C 18.945312 1.90625 21.203125 3.15625 21.851562 4.765625 L 21.960938 5.039062 L 21.976562 11.859375 C 21.984375 16.671875 21.96875 18.753906 21.933594 18.929688 C 21.839844 19.398438 21.539062 19.902344 21.097656 20.347656 C 19.84375 21.613281 17.585938 22.46875 14.460938 22.855469 C 13.882812 22.925781 11.0625 22.988281 10.5 22.941406 Z M 14.109375 21.914062 C 15.800781 21.722656 17.269531 21.382812 18.46875 20.90625 C 19.671875 20.429688 20.492188 19.84375 20.835938 19.21875 L 20.976562 18.960938 L 20.992188 17.464844 C 21.003906 15.800781 21.03125 15.921875 20.71875 16.199219 C 20.453125 16.433594 19.828125 16.808594 19.238281 17.09375 C 17.976562 17.699219 16.429688 18.113281 14.484375 18.355469 C 13.683594 18.453125 11.230469 18.496094 10.332031 18.425781 C 7.332031 18.1875 4.796875 17.394531 3.351562 16.242188 L 3.023438 15.980469 L 3.007812 17.386719 C 3 18.71875 3.003906 18.800781 3.097656 19.054688 C 3.230469 19.402344 3.679688 19.882812 4.199219 20.230469 C 5.558594 21.136719 8.164062 21.824219 10.898438 22.003906 C 11.46875 22.039062 13.496094 21.984375 14.109375 21.914062 Z M 14.109375 17.414062 C 15.800781 17.222656 17.269531 16.882812 18.46875 16.40625 C 19.671875 15.929688 20.492188 15.34375 20.835938 14.71875 L 20.976562 14.460938 L 20.992188 12.964844 C 21.003906 11.300781 21.03125 11.421875 20.71875 11.699219 C 20.453125 11.933594 19.828125 12.308594 19.238281 12.59375 C 17.976562 13.199219 16.429688 13.613281 14.484375 13.855469 C 13.683594 13.953125 11.230469 13.996094 10.332031 13.925781 C 7.332031 13.6875 4.796875 12.894531 3.351562 11.742188 L 3.023438 11.480469 L 3.007812 12.886719 C 3 14.21875 3.003906 14.300781 3.097656 14.554688 C 3.230469 14.902344 3.679688 15.382812 4.199219 15.730469 C 5.558594 16.636719 8.164062 17.324219 10.898438 17.503906 C 11.46875 17.539062 13.496094 17.484375 14.109375 17.414062 Z M 14.109375 12.914062 C 15.800781 12.722656 17.269531 12.382812 18.46875 11.90625 C 19.671875 11.429688 20.492188 10.84375 20.835938 10.21875 L 20.976562 9.960938 L 20.992188 8.699219 L 21.003906 7.4375 L 20.785156 7.636719 C 20.664062 7.742188 20.414062 7.925781 20.230469 8.046875 C 16.636719 10.421875 8.875 10.65625 4.589844 8.511719 C 4.058594 8.246094 3.472656 7.871094 3.183594 7.609375 L 3 7.445312 L 3 8.617188 C 3 9.699219 3.007812 9.816406 3.097656 10.058594 C 3.230469 10.402344 3.683594 10.890625 4.199219 11.230469 C 5.558594 12.136719 8.164062 12.824219 10.898438 13.003906 C 11.46875 13.039062 13.496094 12.984375 14.109375 12.914062 Z M 13.671875 8.949219 C 17.253906 8.648438 20.203125 7.503906 20.867188 6.148438 C 21.023438 5.832031 21.023438 5.183594 20.867188 4.867188 C 20.199219 3.511719 17.265625 2.367188 13.664062 2.0625 C 12.886719 1.996094 11.066406 1.996094 10.335938 2.0625 C 6.617188 2.398438 3.792969 3.511719 3.140625 4.882812 C 2.679688 5.851562 3.296875 6.824219 4.851562 7.609375 C 6.050781 8.207031 8.078125 8.734375 9.867188 8.90625 C 10.152344 8.929688 10.457031 8.960938 10.546875 8.96875 C 10.960938 9.007812 13.132812 8.996094 13.671875 8.949219 Z M 13.671875 8.949219 "/>
</g>
</svg>
