<svg id="svg" version="1.1" xmlns="http://www.w3.org/2000/svg" xmlns:xlink="http://www.w3.org/1999/xlink" width="400" height="400" viewBox="0, 0, 400,400">
    <g id="svgg">
        <path id="path0" d="M87.500 241.246 C 82.330 245.219,68.650 255.707,57.100 264.554 C 45.550 273.400,35.935 280.797,35.734 280.991 C 35.381 281.331,35.407 281.421,36.509 283.622 C 42.058 294.699,51.509 309.016,59.082 317.819 C 59.422 318.214,59.839 318.709,60.008 318.919 C 65.686 325.941,76.786 336.663,85.810 343.843 C 154.456 398.457,255.683 396.279,318.400 338.839 L 319.500 337.831 319.000 337.345 C 318.187 336.555,261.044 292.400,260.834 292.400 C 260.729 292.400,259.575 293.037,258.271 293.815 C 236.807 306.623,204.993 311.450,178.024 305.988 C 141.248 298.542,110.083 271.323,97.895 236.007 C 97.536 234.966,97.165 234.093,97.071 234.068 C 96.977 234.043,92.670 237.273,87.500 241.246 " stroke="none" fill="#34ab54" fill-rule="evenodd"></path>
        <path id="path1" d="M200.000 202.100 L 200.000 237.600 249.095 237.600 L 298.190 237.600 298.070 238.250 C 294.305 258.694,281.238 278.451,263.493 290.526 L 260.887 292.300 289.058 314.100 C 304.552 326.090,317.753 336.320,318.395 336.833 L 319.561 337.767 322.130 335.314 C 351.359 307.411,369.960 266.739,374.089 221.700 C 374.807 213.870,374.895 211.689,374.894 201.700 C 374.893 188.992,374.361 183.499,371.996 171.758 C 371.448 169.041,371.000 166.768,371.000 166.708 C 371.000 166.649,332.525 166.600,285.500 166.600 L 200.000 166.600 200.000 202.100 " stroke="none" fill="#4484f3" fill-rule="evenodd"></path>
        <path id="path2" d="M33.711 122.145 C 10.871 171.357,10.861 228.728,33.683 277.790 C 34.525 279.600,35.247 281.113,35.287 281.154 C 35.327 281.194,45.022 273.822,56.830 264.771 C 68.639 255.720,82.538 245.066,87.719 241.096 L 97.138 233.878 96.864 232.989 C 90.086 210.933,90.093 188.768,96.885 166.951 L 97.180 166.003 66.384 142.451 C 49.446 129.498,35.516 118.875,35.428 118.845 C 35.340 118.814,34.568 120.299,33.711 122.145 " stroke="none" fill="#fbbb04" fill-rule="evenodd"></path>
        <path id="path3" d="M190.300 16.822 C 127.198 20.035,70.325 55.401,39.655 110.500 C 36.412 116.326,35.320 118.608,35.635 118.908 C 35.781 119.047,49.355 129.442,65.800 142.010 C 82.245 154.577,96.028 165.116,96.430 165.430 L 97.159 166.001 97.712 164.451 C 113.654 119.710,155.082 90.902,202.100 91.861 C 226.217 92.353,246.808 99.887,267.087 115.639 C 267.518 115.973,267.831 115.670,294.279 89.221 L 321.034 62.465 318.167 60.067 C 281.599 29.475,237.134 14.438,190.300 16.822 " stroke="none" fill="#ec4434" fill-rule="evenodd"></path>
    </g>
</svg>