<svg width="1080" height="1080" xmlns="http://www.w3.org/2000/svg" viewBox="0 0 792 792">
    <g transform="scale(0.3, -0.3)" transform-origin="35 630" fill="#0000FF">
        <path d="M1111 1804 c-26 -22 -31 -33 -31 -71 0 -57 12 -79 53 -92 45 -15 93
2 112 40 22 41 19 105 -5 129 -30 30 -90 27 -129 -6z" />
        <path d="M130 1758 c0 -13 18 -133 39 -268 21 -135 44 -282 51 -327 l12 -83
104 0 103 0 51 158 c79 242 74 237 89 107 7 -60 17 -145 23 -187 l10 -78 102
0 102 0 24 68 c14 37 30 85 36 107 6 22 39 117 74 210 58 159 80 221 100 288
l9 27 -94 0 -93 0 -6 -27 c-4 -16 -36 -124 -73 -241 -43 -136 -69 -207 -74
-195 -3 10 -17 118 -29 241 l-24 222 -68 0 c-46 0 -70 -4 -72 -12 -31 -104
-151 -455 -157 -462 -5 -6 -9 0 -9 15 0 14 -9 119 -20 234 -11 116 -20 213
-20 218 0 4 -43 7 -95 7 -92 0 -95 -1 -95 -22z" />
        <path d="M1770 1681 c0 -15 -3 -49 -6 -75 -6 -42 -9 -46 -34 -46 -33 0 -40
-14 -40 -80 0 -46 2 -49 28 -52 15 -2 26 -8 25 -13 -8 -50 -14 -190 -9 -219
17 -88 121 -144 218 -117 24 7 51 18 61 26 18 13 18 17 3 67 l-15 53 -48 0
c-46 0 -47 1 -56 37 -5 21 -5 65 0 100 l8 63 68 3 67 3 0 42 c0 23 3 52 6 65
6 21 4 22 -61 22 l-67 0 7 75 7 75 -81 0 -81 0 0 -29z" />
        <path d="M1055 1360 c-17 -186 -18 -202 -2 -235 19 -40 74 -62 130 -51 29 5
36 12 41 37 10 51 7 81 -10 100 -14 15 -14 30 0 157 24 212 30 192 -62 192
l-78 0 -19 -200z" />
        <path d="M1316 1544 c-11 -29 -6 -107 7 -123 12 -13 12 -37 1 -141 -7 -69 -13
-142 -13 -162 l-1 -38 75 0 c88 0 79 -14 95 165 13 150 24 170 86 161 l43 -6
36 72 c42 83 39 88 -47 88 -46 0 -62 -5 -86 -25 l-29 -24 -23 24 c-20 21 -33
25 -81 25 -43 0 -58 -4 -63 -16z" />
        <path d="M2096 1523 c-12 -73 -8 -93 17 -94 12 0 50 -1 85 -2 34 -1 62 -4 62
-7 0 -3 -30 -21 -66 -40 -72 -38 -84 -56 -84 -125 0 -40 3 -45 26 -51 l25 -7
-34 -28 c-102 -84 -103 -247 -1 -307 33 -20 50 -22 110 -19 94 5 147 38 187
117 25 49 28 63 24 125 -2 40 -11 83 -21 100 -9 17 -25 44 -34 60 -10 17 -37
39 -60 50 -22 11 -41 22 -42 25 0 3 39 28 88 55 l87 50 3 68 3 67 -184 0 -184
0 -7 -37z m179 -359 c39 -15 60 -119 31 -156 -32 -43 -101 -38 -112 9 -11 40
4 95 32 125 15 15 29 28 30 28 1 0 10 -3 19 -6z" />
        <path d="M980 950 c-268 -9 -548 -26 -795 -49 l-180 -16 -3 -57 c-3 -50 -1
-58 15 -58 51 -1 401 35 398 40 -4 6 91 14 512 40 83 5 335 14 560 20 224 6
416 13 426 16 21 7 40 41 33 60 -5 12 -63 14 -373 12 -202 0 -469 -4 -593 -8z" />
    </g>
</svg>