<svg class="img-fluid" id="outputsvg" xmlns="http://www.w3.org/2000/svg" style="transform-origin: 50% 50%; max-height: none;" width="580" height="580" viewBox="0 -1110 5800 3890">

    <g id="l1ZQj0W0TNza1AUSLpq6ahe" fill="rgb(0,0,0)" style="transform: none;">
        <g style="transform: none;">
            <path id="pbHh0G13c" d="M2678 1851 l-33 -29 -3 -669 c-2 -465 1 -689 9 -736 30 -182 180 -344 363 -393 255 -68 534 94 602 350 21 79 20 603 -2 677 -89 302 -443 444 -721 288 l-53 -29 0 256 0 256 -29 29 c-40 40 -89 40 -133 0z m587 -675 c29 -13 69 -44 92 -70 69 -78 73 -102 73 -406 l0 -267 -31 -61 c-49 -99 -128 -152 -240 -160 -88 -6 -154 16 -217 73 -30 27 -59 66 -73 97 -23 52 -24 60 -24 318 0 237 2 270 19 314 25 65 88 133 151 162 70 33 180 33 250 0z"></path>
            <path id="pU6hEmRqu" d="M4115 1400 c-111 -18 -201 -67 -282 -153 -61 -65 -86 -106 -112 -184 -20 -60 -21 -83 -21 -528 l0 -467 29 -29 c40 -40 89 -40 133 0 l33 29 5 469 5 468 27 46 c59 100 143 148 258 149 126 0 215 -56 269 -170 l26 -55 5 -458 5 -459 28 -24 c42 -36 90 -33 133 10 l34 34 0 438 c0 473 -4 513 -54 612 -97 192 -315 306 -521 272z"></path>
            <path id="paaaTRnmu" d="M5215 1400 c-215 -34 -382 -205 -417 -429 -6 -36 -8 -171 -6 -315 4 -226 7 -257 26 -310 107 -293 429 -419 707 -279 76 39 169 138 210 225 41 88 55 166 55 316 0 124 -13 170 -53 191 -15 8 -134 12 -382 14 l-360 2 2 83 c3 97 22 149 79 212 57 63 121 90 214 90 122 0 211 -54 266 -161 23 -47 64 -79 99 -79 33 0 77 32 91 67 14 33 14 38 -15 99 -34 72 -110 159 -180 204 -93 59 -227 87 -336 70z m365 -871 c0 -101 -12 -143 -59 -206 -99 -131 -301 -151 -425 -42 -65 58 -94 124 -102 237 l-7 92 297 0 296 0 0 -81z"></path>
        </g>
    </g>
    <g id="l3YCaEDpgKIa44BHtFvsSe1" fill="rgb(135,161,47)" style="transform: none;">
        <g style="transform: none;">
            <path id="p2QpqxkXl" d="M606 1606 c-296 -140 -549 -265 -562 -277 -13 -13 -29 -40 -35 -62 -19 -70 -24 -66 338 -232 l193 -88 300 142 c165 77 307 141 315 141 23 0 1098 -519 1123 -542 l22 -21 0 308 0 308 -33 31 c-21 19 -230 125 -563 285 -291 139 -536 255 -544 257 -8 2 -257 -110 -554 -250z"></path>
        </g>
    </g>
    <g id="l40NLICdajUgraFu5rJY6oC" fill="rgb(31,142,189)" style="transform: none;">
        <g style="transform: none;">
            <path id="pGCN0PAYu" d="M0 878 c0 -145 5 -279 10 -299 6 -19 20 -45 32 -56 32 -30 1096 -516 1116 -510 27 7 1064 488 1090 505 13 8 30 28 38 44 14 27 14 32 -3 51 -10 11 -132 76 -272 144 l-254 124 -46 -20 c-25 -11 -162 -74 -305 -139 l-258 -120 -42 18 c-179 78 -1056 485 -1078 501 l-28 20 0 -263z"></path>
        </g>
    </g>

</svg>