<svg class="img-fluid" id="outputsvg" xmlns="http://www.w3.org/2000/svg" style="transform: none; transform-origin: 50% 50%; cursor: move; max-height: none; transition: none 0s ease 0s;" width="512" height="512" viewBox="0 0 5120 5120">
    <g id="l59WI2oSm2nqRQau0vqd55K" fill="rgb(0,0,0)" style="transform: none;">
        <g>
            <path id="pWl3bX1li" d="M1235 4469 c-151 -36 -213 -221 -112 -336 68 -77 -1 -73 1047 -73 585 0 967 -4 1020 -10 270 -33 489 -139 681 -330 295 -291 411 -709 310 -1107 -98 -382 -383 -687 -761 -813 -175 -59 -189 -60 -1280 -60 l-994 0 171 173 c94 94 179 188 189 207 25 49 24 134 -4 187 -34 64 -112 113 -181 113 -83 0 -89 -5 -480 -393 -382 -381 -410 -414 -411 -487 0 -93 0 -93 383 -478 199 -200 376 -372 392 -382 87 -54 192 -41 261 33 55 58 71 111 54 187 -12 53 -19 62 -193 238 l-181 182 965 0 c572 0 1009 4 1074 10 218 20 376 64 570 159 161 79 277 163 416 301 130 130 239 284 312 440 238 510 185 1125 -136 1573 -288 401 -703 633 -1192 667 -172 12 -1868 11 -1920 -1z"></path>
        </g>
    </g>
</svg>