<?xml version="1.0" encoding="UTF-8"?>
<svg xmlns="http://www.w3.org/2000/svg"
    width="24px"
    height="24px"
    viewBox="0 0 24 24"
    version="1.1">
    <g id="surface1">
        <path
            style=" stroke:none;fill-rule:nonzero;fill:rgb(0%,0%,0%);fill-opacity:1;"
            d="M 19.679688 1.921875 L 4.320312 1.921875 C 2.996094 1.921875 1.921875 2.996094 1.921875 4.320312 L 1.921875 19.679688 C 1.921875 21.003906 2.996094 22.078125 4.320312 22.078125 L 19.679688 22.078125 C 21.003906 22.078125 22.078125 21.003906 22.078125 19.679688 L 22.078125 4.320312 C 22.078125 2.996094 21.003906 1.921875 19.679688 1.921875 Z M 8.160156 9.601562 L 8.160156 18.71875 L 5.28125 18.71875 L 5.28125 9.601562 Z M 5.28125 6.945312 C 5.28125 6.273438 5.855469 5.761719 6.71875 5.761719 C 7.585938 5.761719 8.125 6.273438 8.160156 6.945312 C 8.160156 7.617188 7.621094 8.160156 6.71875 8.160156 C 5.855469 8.160156 5.28125 7.617188 5.28125 6.945312 Z M 18.71875 18.71875 L 15.839844 18.71875 C 15.839844 18.71875 15.839844 14.273438 15.839844 13.921875 C 15.839844 12.960938 15.359375 12 14.160156 11.980469 L 14.121094 11.980469 C 12.960938 11.980469 12.480469 12.96875 12.480469 13.921875 C 12.480469 14.355469 12.480469 18.71875 12.480469 18.71875 L 9.601562 18.71875 L 9.601562 9.601562 L 12.480469 9.601562 L 12.480469 10.828125 C 12.480469 10.828125 13.40625 9.601562 15.269531 9.601562 C 17.175781 9.601562 18.71875 10.910156 18.71875 13.566406 Z M 18.71875 18.71875 " />
    </g>
</svg>
