<?xml version="1.0"?><svg xmlns="http://www.w3.org/2000/svg"  viewBox="0 0 30 30" width="24px" height="24px">    <path d="M 6 4 C 4.895 4 4 4.895 4 6 L 4 24 C 4 25.105 4.895 26 6 26 L 24 26 C 25.105 26 26 25.105 26 24 L 26 6.1210938 L 18.5 13.621094 L 13.439453 8.5605469 L 15.560547 6.4394531 L 18.5 9.3789062 L 23.878906 4 L 6 4 z M 9.9902344 14.880859 C 11.821234 14.880859 13.088094 15.871359 13.121094 17.318359 L 11.285156 17.318359 C 11.242156 16.765359 10.716578 16.380859 10.017578 16.380859 C 9.3185781 16.380859 8.859375 16.710469 8.859375 17.230469 C 8.859375 17.658469 9.2062969 17.907312 10.029297 18.070312 L 11.037109 18.265625 C 12.581109 18.563625 13.273438 19.263906 13.273438 20.503906 C 13.274438 22.134906 12.028469 23.119141 9.9804688 23.119141 C 8.0034687 23.119141 6.7576094 22.187641 6.7246094 20.681641 L 8.6210938 20.681641 C 8.6700937 21.250641 9.2395 21.613281 10.0625 21.613281 C 10.8045 21.613281 11.3125 21.256187 11.3125 20.742188 C 11.3125 20.309188 10.972125 20.075484 10.078125 19.896484 L 9.0488281 19.691406 C 7.6188281 19.420406 6.8828125 18.640156 6.8828125 17.410156 C 6.8828125 15.882156 8.1052344 14.880859 9.9902344 14.880859 z M 18.029297 16.892578 C 19.859297 16.892578 20.925781 18.002484 20.925781 19.896484 L 20.925781 20.419922 L 16.931641 20.419922 L 16.931641 20.515625 C 16.947641 21.288625 17.389375 21.767578 18.109375 21.767578 C 18.658375 21.767578 19.038016 21.56475 19.166016 21.21875 L 20.888672 21.21875 C 20.680672 22.37575 19.592641 23.107422 18.056641 23.107422 C 16.162641 23.107422 15.074219 21.986062 15.074219 20.039062 C 15.074219 18.081063 16.189297 16.892578 18.029297 16.892578 z M 18.039062 18.232422 C 17.420063 18.232422 16.989406 18.663937 16.941406 19.335938 L 19.095703 19.335938 C 19.063703 18.642938 18.668062 18.232422 18.039062 18.232422 z"/></svg>